<svg xmlns="http://www.w3.org/2000/svg" width="93" height="24" xmlns:v="https://vecta.io/nano"><path d="M4.865 15.808H.001c-.021 1.408.235 2.624.768 3.648s1.253 1.867 2.16 2.528 1.952 1.147 3.136 1.456 2.405.464 3.664.464c1.557 0 2.928-.181 4.112-.544s2.176-.869 2.976-1.52 1.403-1.424 1.808-2.32.608-1.867.608-2.912c0-1.28-.272-2.331-.816-3.152s-1.189-1.477-1.936-1.968-1.499-.848-2.256-1.072l-1.776-.464-3.472-.896c-.885-.235-1.579-.469-2.08-.704s-.837-.491-1.008-.768-.256-.64-.256-1.088c0-.491.107-.896.32-1.216a2.78 2.78 0 0 1 .816-.8c.331-.213.699-.363 1.104-.448a5.89 5.89 0 0 1 1.216-.128 8.57 8.57 0 0 1 1.712.16c.523.107.987.288 1.392.544s.731.608.976 1.056.389 1.013.432 1.696h4.864c0-1.323-.251-2.448-.752-3.376s-1.179-1.691-2.032-2.288S13.852.667 12.753.4 10.508 0 9.313 0C8.289 0 7.265.139 6.241.416S4.3 1.12 3.489 1.696s-1.467 1.296-1.968 2.16S.769 5.739.769 6.912c0 1.045.197 1.936.592 2.672a5.65 5.65 0 0 0 1.552 1.84c.64.491 1.365.891 2.176 1.2a21.88 21.88 0 0 0 2.496.784l2.464.64a15.49 15.49 0 0 1 2.176.672c.64.256 1.157.576 1.552.96s.592.885.592 1.504c0 .576-.149 1.051-.448 1.424a3.14 3.14 0 0 1-1.12.88 5.01 5.01 0 0 1-1.44.432 10.01 10.01 0 0 1-1.44.112c-.661 0-1.301-.08-1.92-.24s-1.157-.405-1.616-.736-.827-.763-1.104-1.296-.416-1.184-.416-1.952zm26.572-3.136h4.448c-.064-1.067-.32-1.989-.768-2.768a6.25 6.25 0 0 0-1.744-1.952c-.715-.523-1.525-.912-2.432-1.168S29.091 6.4 28.11 6.4c-1.344 0-2.539.224-3.584.672s-1.931 1.072-2.656 1.872-1.275 1.749-1.648 2.848-.56 2.288-.56 3.568c0 1.237.203 2.373.608 3.408s.971 1.925 1.696 2.672 1.605 1.328 2.64 1.744 2.171.624 3.408.624c2.197 0 4-.576 5.408-1.728s2.261-2.827 2.56-5.024h-4.384c-.149 1.024-.517 1.84-1.104 2.448s-1.424.912-2.512.912c-.704 0-1.301-.16-1.792-.48s-.88-.731-1.168-1.232-.496-1.061-.624-1.68-.192-1.227-.192-1.824c0-.619.064-1.243.192-1.872a5.53 5.53 0 0 1 .656-1.728 3.94 3.94 0 0 1 1.2-1.28c.491-.331 1.099-.496 1.824-.496 1.941 0 3.061.949 3.36 2.848zm9.58 2.464a9.93 9.93 0 0 1 .192-1.952 4.98 4.98 0 0 1 .656-1.696c.309-.491.72-.891 1.232-1.2s1.152-.464 1.92-.464 1.413.155 1.936.464.939.709 1.248 1.2a4.98 4.98 0 0 1 .656 1.696 9.93 9.93 0 0 1 .192 1.952 9.69 9.69 0 0 1-.192 1.936c-.128.629-.347 1.195-.656 1.696s-.725.901-1.248 1.2-1.168.448-1.936.448-1.408-.149-1.92-.448-.923-.699-1.232-1.2-.528-1.067-.656-1.696a9.69 9.69 0 0 1-.192-1.936zm-4.544 0c0 1.323.203 2.517.608 3.584s.981 1.979 1.728 2.736 1.643 1.339 2.688 1.744 2.219.608 3.52.608 2.48-.203 3.536-.608 1.957-.987 2.704-1.744 1.323-1.669 1.728-2.736.608-2.261.608-3.584-.203-2.523-.608-3.6-.981-1.995-1.728-2.752-1.648-1.344-2.704-1.76-2.235-.624-3.536-.624-2.475.208-3.52.624-1.941 1.003-2.688 1.76-1.323 1.675-1.728 2.752-.608 2.277-.608 3.6zm34.028 8.256V6.848h-4.544v8.672c0 1.685-.277 2.896-.832 3.632s-1.451 1.104-2.688 1.104c-1.088 0-1.845-.336-2.272-1.008s-.64-1.691-.64-3.056V6.848h-4.544v10.176c0 1.024.091 1.957.272 2.8s.496 1.557.944 2.144 1.061 1.04 1.84 1.36 1.776.48 2.992.48c.96 0 1.899-.213 2.816-.64s1.664-1.12 2.24-2.08h.096v2.304h4.32zm7.66-16.544v-4.96h-4.544v4.96h-2.752v3.04h2.752v9.76c0 .832.139 1.504.416 2.016s.656.907 1.136 1.184 1.035.464 1.664.56 1.296.144 2 .144l1.376-.032c.469-.021.896-.064 1.28-.128v-3.52c-.213.043-.437.075-.672.096l-.736.032c-.768 0-1.28-.128-1.536-.384s-.384-.768-.384-1.536V9.888h3.328v-3.04h-3.328zm3.948 0v16.544h4.544v-7.456c0-.747.075-1.44.224-2.08s.4-1.2.752-1.68.816-.859 1.392-1.136 1.28-.416 2.112-.416c.277 0 .565.016.864.048l.768.112V6.56c-.363-.107-.693-.16-.992-.16-.576 0-1.131.085-1.664.256a6.1 6.1 0 0 0-1.504.72 5.66 5.66 0 0 0-1.248 1.12 5.59 5.59 0 0 0-.864 1.424h-.064V6.848h-4.32z"/></svg>